<mxfile host="app.diagrams.net" modified="2023-06-20T04:56:33.348Z" agent="Mozilla/5.0 (X11; Linux x86_64; rv:109.0) Gecko/20100101 Firefox/114.0" version="21.2.2" etag="cetzpjgCuYRUQzJqKI59" type="github">
  <diagram name="PÃ¡gina-1" id="0kEOZIYlHJwZ3SIHsoPB">
    <mxGraphModel>
      <root>
        <mxCell id="0" />
        <mxCell id="1" parent="0" />
      </root>
    </mxGraphModel>
  </diagram>
</mxfile>
